<?xml version="1.0" encoding="utf-8"?>
<!-- Generator: Adobe Illustrator 25.1.0, SVG Export Plug-In . SVG Version: 6.00 Build 0)  -->
<svg version="1.1" id="Layer_1" xmlns="http://www.w3.org/2000/svg" xmlns:xlink="http://www.w3.org/1999/xlink" x="0px" y="0px"
	 viewBox="0 0 512 512" style="enable-background:new 0 0 512 512;" xml:space="preserve">
<style type="text/css">
	.st0{fill:none;}
	.st1{fill:#2684FF;}
	.st2{fill:url(#SVGID_1_);}
</style>
<g>
	<polygon class="st0" points="206.17,326.57 306.44,326.57 330.64,185.27 179.51,185.27 	"/>
	<path class="st1" d="M31.76,40.37c-8.49-0.11-15.45,6.68-15.56,15.17c-0.01,0.89,0.05,1.78,0.2,2.66l65.23,396
		c1.68,10,10.3,17.36,20.44,17.44h312.94c7.61,0.1,14.15-5.39,15.37-12.91l65.23-400.46c1.36-8.38-4.33-16.27-12.71-17.63
		c-0.88-0.14-1.77-0.21-2.66-0.2L31.76,40.37z M306.44,326.57h-99.88l-27.05-141.3h151.13L306.44,326.57z"/>
	
		<linearGradient id="SVGID_1_" gradientUnits="userSpaceOnUse" x1="508.2652" y1="289.8109" x2="269.9261" y2="103.7958" gradientTransform="matrix(1 0 0 -1 0 514.73)">
		<stop  offset="0.18" style="stop-color:#0052CC"/>
		<stop  offset="1" style="stop-color:#2684FF"/>
	</linearGradient>
	<path class="st2" d="M474.86,185.27H330.64l-24.2,141.3h-99.88L88.62,466.56c3.74,3.23,8.5,5.03,13.45,5.07h313.02
		c7.61,0.1,14.15-5.39,15.37-12.91L474.86,185.27z"/>
</g>
</svg>
