<?xml version="1.0" encoding="utf-8"?>
<!-- Generator: Adobe Illustrator 25.1.0, SVG Export Plug-In . SVG Version: 6.00 Build 0)  -->
<svg version="1.1"
	 id="svg3476" inkscape:version="0.91 r13725" sodipodi:docname="CSS3.svg" xmlns:cc="http://creativecommons.org/ns#" xmlns:dc="http://purl.org/dc/elements/1.1/" xmlns:inkscape="http://www.inkscape.org/namespaces/inkscape" xmlns:rdf="http://www.w3.org/1999/02/22-rdf-syntax-ns#" xmlns:sodipodi="http://sodipodi.sourceforge.net/DTD/sodipodi-0.dtd" xmlns:svg="http://www.w3.org/2000/svg"
	 xmlns="http://www.w3.org/2000/svg" xmlns:xlink="http://www.w3.org/1999/xlink" x="0px" y="0px" viewBox="0 0 512 512"
	 style="enable-background:new 0 0 512 512;" xml:space="preserve">
<style type="text/css">
	.st0{fill:#264DE4;}
	.st1{fill:#2965F1;}
	.st2{fill:#EBEBEB;}
	.st3{fill:#FFFFFF;}
</style>
<sodipodi:namedview  bordercolor="#666666" borderopacity="1.0" fit-margin-bottom="0" fit-margin-left="0" fit-margin-right="0" fit-margin-top="0" id="base" inkscape:current-layer="layer1" inkscape:cx="181.367" inkscape:cy="256" inkscape:document-units="px" inkscape:pageopacity="0.0" inkscape:pageshadow="2" inkscape:window-height="704" inkscape:window-maximized="1" inkscape:window-width="1366" inkscape:window-x="0" inkscape:window-y="27" inkscape:zoom="0.35" pagecolor="#ffffff" showgrid="false">
	</sodipodi:namedview>
<g id="layer1" transform="translate(-193.633,-276.3622)" inkscape:groupmode="layer" inkscape:label="Calque 1">
	<g id="g3013" transform="translate(119,276.3622)">
		<polygon id="polygon2989" class="st0" points="537.7,21.2 499.9,443.8 330.4,490.8 161.3,443.9 123.6,21.2 		"/>
		<polygon id="polygon2991" class="st1" points="467.7,416.9 499.9,55.8 330.6,55.8 330.6,454.9 		"/>
		<polygon id="polygon2993" class="st2" points="210,212.5 214.6,264.4 330.6,264.4 330.6,212.5 		"/>
		<polygon id="polygon2995" class="st2" points="330.6,107.6 330.5,107.6 200.6,107.6 205.4,159.4 330.6,159.4 		"/>
		<polygon id="polygon2997" class="st2" points="330.6,401.1 330.6,347.1 330.4,347.2 272.7,331.6 269,290.3 240.9,290.3 
			216.9,290.3 224.2,371.7 330.4,401.1 		"/>
		<polygon id="polygon3005" class="st3" points="394.3,264.4 388.3,331.6 330.5,347.2 330.5,401.1 436.7,371.7 437.5,362.9 
			449.7,226.4 450.9,212.5 460.3,107.6 330.5,107.6 330.5,159.4 403.5,159.4 398.8,212.5 330.5,212.5 330.5,264.4 		"/>
	</g>
</g>
</svg>
