<svg width="123" height="102" viewBox="0 0 123 102" fill="none" xmlns="http://www.w3.org/2000/svg">
<g clip-path="url(#clip0_1_393)">
<path fill-rule="evenodd" clip-rule="evenodd" d="M3.34001 0H119.54C120.425 0.00263791 121.273 0.355377 121.899 0.981177C122.525 1.60698 122.877 2.45499 122.88 3.34V80.34C122.877 81.225 122.525 82.073 121.899 82.6988C121.273 83.3246 120.425 83.6774 119.54 83.68H3.34001C2.90009 83.6787 2.46472 83.5907 2.05878 83.4212C1.65285 83.2516 1.28428 83.0037 0.974132 82.6917C0.663984 82.3797 0.418327 82.0097 0.251188 81.6028C0.0840484 81.1958 -0.00130021 80.7599 1.49712e-05 80.32V3.32C0.00790583 2.43846 0.362962 1.59557 0.988197 0.974075C1.61343 0.352584 2.45845 0.00259624 3.34001 0ZM12.62 23.21H21.26C21.3607 23.2126 21.4599 23.2351 21.5518 23.2764C21.6437 23.3176 21.7264 23.3767 21.7953 23.4502C21.8641 23.5237 21.9177 23.6102 21.9528 23.7045C21.988 23.7989 22.004 23.8994 22 24V26.9C21.9974 27.0998 21.9162 27.2906 21.7739 27.4309C21.6317 27.5713 21.4399 27.65 21.24 27.65H12.62C12.4202 27.65 12.2284 27.5713 12.0861 27.4309C11.9439 27.2906 11.8626 27.0998 11.86 26.9V24C11.8626 23.8002 11.9439 23.6094 12.0861 23.4691C12.2284 23.3287 12.4202 23.25 12.62 23.25V23.21ZM12.62 47.58H42.86C43.0599 47.58 43.2517 47.6587 43.3939 47.7991C43.5362 47.9394 43.6174 48.1302 43.62 48.33V51.27C43.6174 51.4698 43.5362 51.6606 43.3939 51.8009C43.2517 51.9413 43.0599 52.02 42.86 52.02H12.62C12.4202 52.02 12.2284 51.9413 12.0861 51.8009C11.9439 51.6606 11.8626 51.4698 11.86 51.27V48.33C11.8626 48.1302 11.9439 47.9394 12.0861 47.7991C12.2284 47.6587 12.4202 47.58 12.62 47.58ZM12.62 35.17H31.34C31.5408 35.1726 31.7326 35.2535 31.8746 35.3955C32.0165 35.5374 32.0974 35.7292 32.1 35.93V38.87C32.0949 39.069 32.0128 39.2583 31.8711 39.3981C31.7294 39.538 31.5391 39.6175 31.34 39.62H12.62C12.4202 39.62 12.2284 39.5413 12.0861 39.4009C11.9439 39.2606 11.8626 39.0698 11.86 38.87V35.93C11.86 35.7284 11.9401 35.5351 12.0826 35.3926C12.2251 35.2501 12.4185 35.17 12.62 35.17ZM12.62 59.98H55.82C56.0198 59.9826 56.2106 60.0639 56.351 60.2061C56.4913 60.3483 56.57 60.5402 56.57 60.74V63.68C56.5674 63.8781 56.4876 64.0674 56.3475 64.2075C56.2074 64.3476 56.0181 64.4274 55.82 64.43H12.62C12.4202 64.43 12.2284 64.3513 12.0861 64.2109C11.9439 64.0706 11.8626 63.8798 11.86 63.68V60.74C11.86 60.5384 11.9401 60.3451 12.0826 60.2026C12.2251 60.0601 12.4185 59.98 12.62 59.98ZM46.29 88.27H76.59C76.67 93.51 78.83 98.21 84.68 101.9H38.2C42.91 98.49 46.31 94.36 46.29 88.27ZM118.51 11.65V70.84C118.51 71.6356 118.194 72.3987 117.631 72.9613C117.069 73.5239 116.306 73.84 115.51 73.84H7.33001C6.54306 73.8269 5.79278 73.505 5.24094 72.9438C4.6891 72.3826 4.37991 71.6271 4.38001 70.84V11.65H31.54V15.52C31.54 16.0504 31.7507 16.5591 32.1258 16.9342C32.5009 17.3093 33.0096 17.52 33.54 17.52H36.59C36.8891 18.866 37.3632 20.167 38 21.39L35.66 23.74C35.2966 24.1134 35.0932 24.6139 35.0932 25.135C35.0932 25.6561 35.2966 26.1566 35.66 26.53L38.57 29.45C38.9439 29.8165 39.4465 30.0217 39.97 30.0217C40.4935 30.0217 40.9962 29.8165 41.37 29.45L43.52 27.29C44.7014 28.0265 45.9761 28.6016 47.31 29V32.32C47.31 32.8504 47.5207 33.3591 47.8958 33.7342C48.2709 34.1093 48.7796 34.32 49.31 34.32H53.44C53.9704 34.32 54.4792 34.1093 54.8542 33.7342C55.2293 33.3591 55.44 32.8504 55.44 32.32V29.32C56.7971 29.0126 58.1058 28.5214 59.33 27.86L61.68 30.21C62.0534 30.5735 62.5539 30.7768 63.075 30.7768C63.5961 30.7768 64.0966 30.5735 64.47 30.21L67.39 27.29C67.7535 26.9166 67.9568 26.4161 67.9568 25.895C67.9568 25.3739 67.7535 24.8734 67.39 24.5L65.24 22.35C65.9774 21.1713 66.5557 19.9003 66.96 18.57H70.28C70.8104 18.57 71.3192 18.3593 71.6942 17.9842C72.0693 17.6091 72.28 17.1004 72.28 16.57V12.44C72.2792 12.1687 72.2249 11.9002 72.12 11.65H118.51ZM105.21 25.91L108.45 29.15C108.859 29.5604 109.088 30.1159 109.088 30.695C109.088 31.2741 108.859 31.8296 108.45 32.24L105.84 34.85C106.569 36.2082 107.114 37.6577 107.46 39.16H110.83C111.407 39.1679 111.957 39.4017 112.363 39.8113C112.769 40.2209 112.997 40.7734 113 41.35V45.93C113 46.5108 112.769 47.0679 112.359 47.4786C111.948 47.8893 111.391 48.12 110.81 48.12H107.13C106.683 49.5956 106.041 51.0047 105.22 52.31L107.61 54.7C108.019 55.1121 108.249 55.6693 108.249 56.25C108.249 56.8307 108.019 57.3879 107.61 57.8L104.39 61C103.978 61.4091 103.421 61.6388 102.84 61.6388C102.259 61.6388 101.702 61.4091 101.29 61L98.69 58.39C97.3283 59.1194 95.8755 59.6642 94.37 60.01V63.39C94.3674 63.97 94.1358 64.5255 93.7257 64.9357C93.3155 65.3458 92.76 65.5774 92.18 65.58H87.6C87.02 65.5774 86.4645 65.3458 86.0544 64.9357C85.6442 64.5255 85.4126 63.97 85.41 63.39V59.74C83.9352 59.291 82.5263 58.6488 81.22 57.83L78.83 60.22C78.4179 60.6291 77.8607 60.8587 77.28 60.8587C76.6993 60.8587 76.1421 60.6291 75.73 60.22L72.5 57C72.0915 56.5896 71.8621 56.0341 71.8621 55.455C71.8621 54.8759 72.0915 54.3204 72.5 53.91L75.1 51.3C74.3789 49.9426 73.8377 48.4972 73.49 47H70.11C69.53 46.9974 68.9745 46.7658 68.5644 46.3557C68.1542 45.9455 67.9226 45.39 67.92 44.81V40.2C67.92 39.6183 68.1504 39.0602 68.5608 38.6479C68.9713 38.2356 69.5283 38.0026 70.11 38H73.8C74.2428 36.5228 74.8854 35.1131 75.71 33.81L73.32 31.42C73.115 31.2173 72.9523 30.9759 72.8412 30.7098C72.7301 30.4438 72.673 30.1583 72.673 29.87C72.673 29.5817 72.7301 29.2962 72.8412 29.0302C72.9523 28.7641 73.115 28.5227 73.32 28.32L76.55 25.08C76.9621 24.6709 77.5193 24.4412 78.1 24.4412C78.6807 24.4412 79.2379 24.6709 79.65 25.08L82.26 27.69C83.6182 26.9607 85.0677 26.4159 86.57 26.07V22.7C86.5726 22.12 86.8042 21.5645 87.2144 21.1543C87.6245 20.7442 88.18 20.5126 88.76 20.51H93.34C93.92 20.5126 94.4755 20.7442 94.8857 21.1543C95.2958 21.5645 95.5274 22.12 95.53 22.7V26.39C97.0056 26.837 98.4148 27.4794 99.72 28.3L102.11 25.91C102.522 25.5009 103.079 25.2712 103.66 25.2712C104.241 25.2712 104.798 25.5009 105.21 25.91ZM59.64 11.65C60.0053 12.8628 60.0818 14.1442 59.8634 15.3918C59.645 16.6394 59.1378 17.8187 58.3823 18.8353C57.6268 19.8519 56.6439 20.6776 55.5123 21.2465C54.3806 21.8154 53.1316 22.1117 51.865 22.1117C50.5984 22.1117 49.3494 21.8154 48.2178 21.2465C47.0861 20.6776 46.1033 19.8519 45.3478 18.8353C44.5922 17.8187 44.085 16.6394 43.8666 15.3918C43.6482 14.1442 43.7247 12.8628 44.09 11.65H59.64ZM90.47 34.06C92.25 34.06 93.9901 34.5878 95.4701 35.5768C96.9502 36.5657 98.1037 37.9713 98.7849 39.6158C99.4661 41.2604 99.6443 43.07 99.2971 44.8158C98.9498 46.5616 98.0926 48.1653 96.834 49.424C95.5753 50.6826 93.9717 51.5398 92.2258 51.8871C90.48 52.2343 88.6704 52.0561 87.0259 51.3749C85.3813 50.6937 83.9757 49.5402 82.9868 48.0601C81.9979 46.5801 81.47 44.84 81.47 43.06C81.47 40.6731 82.4182 38.3839 84.1061 36.696C85.7939 35.0082 88.0831 34.06 90.47 34.06ZM113.8 4.92C114.196 4.92 114.582 5.0373 114.911 5.25706C115.24 5.47682 115.496 5.78918 115.648 6.15463C115.799 6.52009 115.839 6.92222 115.762 7.31018C115.684 7.69814 115.494 8.05451 115.214 8.33421C114.935 8.61392 114.578 8.8044 114.19 8.88157C113.802 8.95874 113.4 8.91913 113.035 8.76776C112.669 8.61638 112.357 8.36004 112.137 8.03114C111.917 7.70224 111.8 7.31556 111.8 6.92C111.8 6.38957 112.011 5.88086 112.386 5.50579C112.761 5.13071 113.27 4.92 113.8 4.92ZM100.36 4.92C100.756 4.92 101.142 5.0373 101.471 5.25706C101.8 5.47682 102.056 5.78918 102.208 6.15463C102.359 6.52009 102.399 6.92222 102.322 7.31018C102.244 7.69814 102.054 8.05451 101.774 8.33421C101.495 8.61392 101.138 8.8044 100.75 8.88157C100.362 8.95874 99.9601 8.91913 99.5947 8.76776C99.2292 8.61638 98.9168 8.36004 98.6971 8.03114C98.4773 7.70224 98.36 7.31556 98.36 6.92C98.36 6.38957 98.5707 5.88086 98.9458 5.50579C99.3209 5.13071 99.8296 4.92 100.36 4.92ZM107.08 4.92C107.476 4.92 107.862 5.0373 108.191 5.25706C108.52 5.47682 108.776 5.78918 108.928 6.15463C109.079 6.52009 109.119 6.92222 109.042 7.31018C108.964 7.69814 108.774 8.05451 108.494 8.33421C108.215 8.61392 107.858 8.8044 107.47 8.88157C107.082 8.95874 106.68 8.91913 106.315 8.76776C105.949 8.61638 105.637 8.36004 105.417 8.03114C105.197 7.70224 105.08 7.31556 105.08 6.92C105.08 6.38957 105.291 5.88086 105.666 5.50579C106.041 5.13071 106.55 4.92 107.08 4.92Z" fill="#90CAF8"/>
</g>
<defs>
<clipPath id="clip0_1_393">
<rect width="122.88" height="101.9" fill="white"/>
</clipPath>
</defs>
</svg>
