<?xml version="1.0" encoding="utf-8"?>
<!-- Generator: Adobe Illustrator 25.1.0, SVG Export Plug-In . SVG Version: 6.00 Build 0)  -->
<svg version="1.1" id="Layer_1" xmlns="http://www.w3.org/2000/svg" xmlns:xlink="http://www.w3.org/1999/xlink" x="0px" y="0px"
	 viewBox="0 0 512 512" style="enable-background:new 0 0 512 512;" xml:space="preserve">
<style type="text/css">
	.st0{fill-rule:evenodd;clip-rule:evenodd;fill:#221E1B;}
	.st1{fill:#221E1B;}
</style>
<g>
	<path class="st0" d="M256,21C122.95,21,15.05,128.87,15.05,261.95c0,106.46,69.04,196.77,164.78,228.64
		c12.04,2.23,16.46-5.23,16.46-11.59c0-5.74-0.22-24.73-0.33-44.86c-67.03,14.58-81.18-28.43-81.18-28.43
		c-10.96-27.85-26.75-35.26-26.75-35.26c-21.86-14.95,1.65-14.65,1.65-14.65c24.19,1.7,36.94,24.83,36.94,24.83
		c21.49,36.83,56.37,26.18,70.12,20.03c2.16-15.57,8.4-26.2,15.3-32.22c-53.52-6.09-109.78-26.75-109.78-119.08
		c0-26.31,9.41-47.8,24.83-64.67c-2.5-6.07-10.75-30.58,2.33-63.77c0,0,20.23-6.47,66.28,24.7c19.22-5.34,39.83-8.02,60.31-8.11
		c20.48,0.09,41.1,2.77,60.36,8.11c45.99-31.17,66.19-24.7,66.19-24.7c13.12,33.19,4.87,57.7,2.37,63.77
		c15.45,16.87,24.8,38.37,24.8,64.67c0,92.55-56.37,112.92-110.02,118.89c8.64,7.48,16.34,22.14,16.34,44.62
		c0,32.24-0.28,58.19-0.28,66.12c0,6.41,4.34,13.93,16.55,11.56c95.69-31.9,164.64-122.18,164.64-228.61
		C496.95,128.87,389.07,21,256,21z"/>
	<path class="st1" d="M106.31,366.95c-0.53,1.2-2.42,1.56-4.13,0.74c-1.75-0.79-2.73-2.42-2.16-3.62c0.52-1.23,2.4-1.57,4.15-0.75
		C105.92,364.1,106.92,365.75,106.31,366.95L106.31,366.95z M103.35,364.75"/>
	<path class="st1" d="M116.07,377.84c-1.15,1.06-3.4,0.57-4.92-1.11c-1.58-1.68-1.87-3.93-0.71-5.01c1.18-1.06,3.36-0.56,4.94,1.11
		C116.96,374.53,117.27,376.76,116.07,377.84L116.07,377.84z M113.77,375.37"/>
	<path class="st1" d="M125.57,391.71c-1.48,1.03-3.89,0.07-5.38-2.08c-1.48-2.14-1.48-4.71,0.03-5.74c1.49-1.03,3.87-0.1,5.39,2.02
		C127.08,388.09,127.08,390.66,125.57,391.71L125.57,391.71z M125.57,391.71"/>
	<path class="st1" d="M138.59,405.12c-1.32,1.46-4.13,1.06-6.19-0.92c-2.11-1.94-2.69-4.7-1.37-6.16c1.34-1.46,4.17-1.05,6.24,0.92
		C139.36,400.9,139.99,403.68,138.59,405.12L138.59,405.12z M138.59,405.12"/>
	<path class="st1" d="M156.54,412.9c-0.58,1.89-3.29,2.74-6.02,1.94c-2.73-0.83-4.51-3.04-3.96-4.94c0.56-1.9,3.29-2.79,6.04-1.94
		C155.32,408.79,157.11,410.98,156.54,412.9L156.54,412.9z M156.54,412.9"/>
	<path class="st1" d="M176.26,414.35c0.07,1.99-2.25,3.64-5.11,3.67c-2.88,0.07-5.21-1.54-5.24-3.5c0-2.01,2.26-3.64,5.14-3.69
		C173.91,410.78,176.26,412.37,176.26,414.35L176.26,414.35z M176.26,414.35"/>
	<path class="st1" d="M194.61,411.22c0.34,1.94-1.65,3.93-4.49,4.46c-2.8,0.51-5.38-0.69-5.74-2.61c-0.35-1.99,1.68-3.98,4.47-4.49
		C191.7,408.09,194.25,409.25,194.61,411.22L194.61,411.22z M194.61,411.22"/>
</g>
</svg>
