<?xml version="1.0" encoding="utf-8"?>
<!-- Generator: Adobe Illustrator 25.1.0, SVG Export Plug-In . SVG Version: 6.00 Build 0)  -->
<svg version="1.1" id="Layer_1" xmlns="http://www.w3.org/2000/svg" xmlns:xlink="http://www.w3.org/1999/xlink" x="0px" y="0px"
	 viewBox="0 0 128 128" style="enable-background:new 0 0 128 128;" xml:space="preserve">
<style type="text/css">
	.st0{fill:#0868AC;}
</style>
<path class="st0" d="M10.1,32.7c-11,15.8-9.7,36.2-1.3,53.1L9.4,87l0.4,0.7l0.3,0.4l0.4,0.7c0.3,0.4,0.6,0.9,0.7,1.3l0.4,0.7
	c0.3,0.4,0.6,1,0.9,1.5l0.4,0.6c0.4,0.6,0.9,1.3,1.3,1.9l0,0l0.3,0.3c0.4,0.6,0.7,1,1.2,1.6l0.4,0.6c0.3,0.4,0.7,0.9,1.2,1.3
	l0.4,0.4c0.4,0.6,1,1.2,1.6,1.8l0,0l0,0c0.6,0.6,1,1.2,1.6,1.6l0.4,0.4c0.4,0.4,0.9,0.9,1.3,1.2l0.6,0.4c0.6,0.6,1.2,1,1.8,1.6l0,0
	l0.3,0.3c0.6,0.4,1,0.9,1.6,1.3l0.6,0.6c0.4,0.3,0.9,0.7,1.3,1l0.7,0.6c0.4,0.3,1,0.7,1.5,1l0.6,0.4l0.1,0.1
	c0.4,0.3,0.9,0.6,1.5,0.9l0.6,0.4c0.7,0.4,1.5,0.9,2.2,1.3l0.6,0.3c0.6,0.3,1.2,0.6,1.6,0.9l0.9,0.4L41,117l0.3,0.1l0.4,0.3
	c0.6,0.3,1.3,0.6,1.9,0.9l0.4,0.1c0.7,0.3,1.5,0.6,2.2,0.9l0.6,0.1c0.7,0.3,1.3,0.6,2.1,0.7l0.3,0.1c0.7,0.3,1.6,0.6,2.4,0.7
	l0.6,0.1c0.7,0.3,1.6,0.6,2.4,0.7c53.1,9.7,68.4-31.9,68.4-31.9c-13,16.9-35.9,21.3-57.7,16.4c-0.9-0.1-1.6-0.4-2.4-0.7l-0.6-0.1
	c-0.7-0.3-1.5-0.4-2.4-0.7l-0.4,0.4c-0.7-0.3-1.3-0.4-2.1-0.7l-0.6-0.3c-0.7-0.3-1.5-0.6-2.2-0.9l-0.4-0.1c-0.6-0.3-1.2-0.6-1.9-0.9
	l-0.6-0.3c-0.4-0.3-1-0.4-1.5-0.7l-0.9-0.4c-0.6-0.3-1.2-0.6-1.8-1l-0.6-0.3c-0.7-0.4-1.5-0.9-2.2-1.3l-0.4-0.4
	c-0.6-0.3-1-0.7-1.6-1l-0.4-0.4c-0.4-0.3-1-0.7-1.5-1l-0.7-0.4c-0.4-0.3-0.9-0.7-1.3-1L38,93.2c-0.6-0.4-1.2-0.9-1.6-1.5l-0.1-0.1
	c-0.6-0.6-1.2-1-1.8-1.6L34,89.5c-0.4-0.4-0.9-0.9-1.3-1.3l-0.4-0.4c-0.6-0.6-1-1-1.6-1.6l-0.1-0.3c-0.6-0.6-1-1.2-1.6-1.8l-0.4-0.4
	c-0.4-0.4-0.7-0.9-1.2-1.5l-0.4-0.6c-0.4-0.6-0.9-1.2-1.3-1.8C13.2,63.3,8.9,40.5,18.6,21.8 M44.1,19.4c-7.9,11.5-7.5,26.7-1.3,38.8
	c1,2.1,2.2,4,3.6,5.8c1.2,1.6,2.5,3.7,4,5.1c0.6,0.6,1.2,1.2,1.8,1.8l0.4,0.4c0.6,0.6,1.2,1.2,1.8,1.6l0,0l0,0
	c0.7,0.6,1.3,1.2,2.1,1.8l0.4,0.4c0.7,0.6,1.5,1,2.2,1.6l0,0l1,0.6l0.4,0.3c0.6,0.3,1,0.7,1.6,1l0.3,0.1c0.4,0.3,0.9,0.6,1.5,0.7
	l0.4,0.3l1,0.6h0.1c0.7,0.3,1.3,0.7,2.1,1l0.4,0.1c0.6,0.3,1.2,0.4,1.8,0.7l0.7,0.3c0.6,0.1,1,0.4,1.6,0.6l0.7,0.3
	c0.7,0.3,1.5,0.6,2.2,0.6c41,6.7,50.4-24.8,50.4-24.8c-8.5,12.2-25.1,18.2-42.6,13.6c-0.7-0.1-1.5-0.4-2.4-0.6l-0.4-0.1
	c-0.6-0.1-1-0.3-1.6-0.6L78,71.5c-0.6-0.3-1.2-0.4-1.8-0.7l-0.4-0.1c-0.7-0.3-1.5-0.6-2.1-1l-1-0.6L72,68.6
	c-0.4-0.3-0.9-0.4-1.3-0.7h-0.3c-0.6-0.3-1-0.6-1.6-1l-0.4-0.3l-1.2-0.7c-0.7-0.4-1.5-1-2.2-1.6l-0.4-0.4
	c-7.8-6.1-13.9-14.5-16.7-23.9c-3-9.8-2.4-20.7,2.8-29.7 M72.7,9.6c-4.6,6.9-5.1,15.4-1.9,23c3.4,8.1,10.4,14.3,18.6,17.4l1,0.3
	l0.4,0.1c0.4,0.1,0.9,0.3,1.5,0.4c22.7,4.3,28.8-11.6,30.4-14c-5.4,7.8-14.5,9.5-25.5,6.9c-0.9-0.1-1.8-0.6-2.7-0.9
	c-1-0.4-2.1-0.9-3.1-1.3c-1.9-0.9-3.9-2.1-5.5-3.4c-9.8-7.5-16.1-21.9-9.5-33.6"/>
</svg>
