<svg width="82" height="123" viewBox="0 0 82 123" fill="none" xmlns="http://www.w3.org/2000/svg">
<g clip-path="url(#clip0_1_405)">
<path fill-rule="evenodd" clip-rule="evenodd" d="M62.86 44.75C65.86 44.44 67.93 45.75 68.3 47.75C68.84 50.68 66 52.83 63.95 54.4L62.86 55.19V44.75ZM38.6 39C40.0196 39.002 41.4068 39.4248 42.5863 40.2149C43.7657 41.0051 44.6844 42.1271 45.2263 43.4393C45.7682 44.7514 45.909 46.1947 45.6308 47.5869C45.3526 48.979 44.668 50.2574 43.6635 51.2606C42.659 52.2637 41.3796 52.9465 39.9871 53.2228C38.5946 53.499 37.1514 53.3562 35.84 52.8125C34.5286 52.2688 33.4079 51.3485 32.6194 50.168C31.8309 48.9874 31.41 47.5996 31.41 46.18C31.41 45.2363 31.596 44.3018 31.9575 43.43C32.319 42.5582 32.8487 41.7663 33.5165 41.0994C34.1843 40.4326 34.977 39.9039 35.8493 39.5437C36.7215 39.1834 37.6563 38.9987 38.6 39ZM34.08 54.4C32.4136 54.5822 30.8293 55.2187 29.5 56.24C27.7903 57.6362 26.4221 59.4045 25.5 61.41C24.4861 63.552 23.9276 65.8811 23.86 68.25C23.56 70.34 23.37 73.92 23.31 75.98H29.51L30.01 67.98C30.0324 66.8884 30.2562 65.8103 30.67 64.8C30.8767 64.3014 31.1564 63.8363 31.5 63.42L31.77 76H45.4L45.56 65.34V65.59V63.45C45.9036 63.8663 46.1833 64.3314 46.39 64.83C46.8198 65.834 47.0605 66.9086 47.1 68L47.6 76H53.8C53.74 73.94 53.55 70.36 53.25 68.27C53.1789 65.9004 52.6171 63.5714 51.6 61.43C49.6 57.18 46.99 54.93 43.04 54.43C40.61 54.23 36.52 54.43 34.04 54.43L34.08 54.4ZM47.18 18.64L42.4 5.08L56.4 11.27L66.32 0L67.52 14.76L81.52 17.88L70.3 26.78L74.39 40.78L62.25 35.2L63.35 32.78L70.2 35.92L67.2 25.81L75.48 19.26L65 16.92L64.17 6.46L57.08 14.46L47 10L49.73 17.79L47.22 18.66L47.18 18.64ZM53.32 23.21C53.7413 23.21 54.1531 23.3349 54.5034 23.569C54.8536 23.803 55.1267 24.1357 55.2879 24.5249C55.4491 24.9141 55.4913 25.3424 55.4091 25.7555C55.3269 26.1687 55.124 26.5483 54.8261 26.8461C54.5283 27.144 54.1487 27.3469 53.7355 27.4291C53.3224 27.5113 52.8941 27.4691 52.5049 27.3079C52.1157 27.1466 51.783 26.8736 51.549 26.5234C51.3149 26.1731 51.19 25.7613 51.19 25.34C51.19 25.0603 51.2451 24.7833 51.3521 24.5249C51.4592 24.2665 51.6161 24.0317 51.8139 23.8339C52.0117 23.6361 52.2465 23.4792 52.5049 23.3721C52.7633 23.2651 53.0403 23.21 53.32 23.21ZM14.59 31C19.45 30.77 20.73 35.86 20.3 39.91C20.05 42.29 19.42 43.17 18.37 45.27C17.14 47.27 15.32 49.19 14.18 51.22V95.71C14.1815 97.0381 14.4476 98.3526 14.9627 99.5768C15.4777 100.801 16.2315 101.91 17.18 102.84C18.0698 103.747 19.1212 104.479 20.28 105L20.41 105.05C21.8206 105.561 23.3097 105.822 24.81 105.82H50.91C45.81 110.61 40.32 113.82 34.09 114.02L27.62 121.88C26.23 123.16 24.62 123.3 22.67 121.88L3.91 109.32C2 108 0 106.71 0 104C0 102.12 1.11 100.25 2.79 98.39C3.88813 96.5802 4.47559 94.5068 4.49 92.39C4.59 88.09 2.49 84.39 2.19 79.62C1.93669 72.8046 2.22426 65.9799 3.05 59.21L3.44 48.27C3.5288 47.2959 3.84754 46.3569 4.37 45.53L14 31.1C14.1911 31.0592 14.385 31.0325 14.58 31.02L14.59 31ZM62.25 66.53V63.64C64.7963 63.8363 67.1747 64.9863 68.91 66.86C71.37 69.86 69.78 74.16 67.04 76.22C66.4782 76.6314 65.8209 76.893 65.13 76.98H65.38C68 79.19 69.28 81.66 68.78 84.05C68.06 87.58 62.41 91.22 59.02 91.47C58.2842 91.5567 57.5389 91.4292 56.8738 91.1028C56.2086 90.7764 55.6517 90.265 55.27 89.63C53.34 86.63 56.27 83.43 58.27 81.44C59.4056 80.3016 60.7368 79.3768 62.2 78.71V76.51C61.5833 76.2831 61.0294 75.9126 60.5843 75.4291C60.1391 74.9457 59.8154 74.3633 59.64 73.73C59.06 71.08 60.76 68.52 62.25 66.49V66.53ZM62 92.43L62.23 91.27C64.96 91.06 66.97 91.98 68 94.47C68.44 96.93 68.19 99.47 65.87 100.87C63.74 102.21 59.1 103.04 56.87 101.54C54.64 100.04 54.78 97.24 56.59 95.31C58.0511 93.8123 59.9417 92.8058 62 92.43ZM24.81 20.69H52.81C54.9124 20.6926 56.9278 21.529 58.4144 23.0156C59.901 24.5022 60.7374 26.5176 60.74 28.62V63.36C60.735 63.4533 60.735 63.5467 60.74 63.64V66C59.9582 67.0117 59.2877 68.1047 58.74 69.26C58.4465 69.8992 58.2284 70.5704 58.09 71.26V29.26H19.27V31C18.6339 30.2809 17.8042 29.7602 16.88 29.5V28.63C16.88 27.5891 17.0852 26.5584 17.4838 25.5968C17.8825 24.6353 18.4667 23.7617 19.2032 23.0262C19.9397 22.2906 20.814 21.7074 21.7761 21.31C22.7381 20.9126 23.7691 20.7087 24.81 20.71V20.69ZM38.81 95.11C39.3705 95.1127 39.9209 95.2599 40.408 95.5374C40.895 95.8149 41.3023 96.2133 41.5905 96.6941C41.8786 97.1749 42.0379 97.7219 42.053 98.2822C42.0681 98.8426 41.9385 99.3973 41.6766 99.8929C41.4147 100.389 41.0295 100.808 40.5581 101.112C40.0866 101.415 39.545 101.591 38.9854 101.624C38.4258 101.657 37.8672 101.545 37.3635 101.299C36.8599 101.053 36.4281 100.682 36.11 100.22C35.7404 99.6736 35.542 99.0296 35.54 98.37C35.54 97.9411 35.6246 97.5163 35.7891 97.1201C35.9536 96.724 36.1946 96.3641 36.4984 96.0613C36.8021 95.7584 37.1627 95.5185 37.5594 95.3553C37.9561 95.192 38.3811 95.1087 38.81 95.11ZM58.07 74V74.09C58.2695 74.9708 58.7011 75.7823 59.32 76.44C59.6952 76.8303 60.1226 77.1668 60.59 77.44V77.71C60.1179 77.9641 59.6606 78.2445 59.22 78.55C58.82 78.83 58.43 79.13 58.05 79.45V74H58.07ZM56.31 92.63C56.515 92.7198 56.7254 92.7966 56.94 92.86C56.3731 93.2641 55.8472 93.723 55.37 94.23C55.0752 94.5425 54.8044 94.8767 54.56 95.23C53.8566 96.2563 53.4897 97.4759 53.51 98.72C53.5281 99.3771 53.6782 100.024 53.9513 100.622C54.2245 101.219 54.6151 101.756 55.1 102.2C55.356 102.438 55.6301 102.655 55.92 102.85L56.04 102.93C55.0084 103.392 53.8905 103.631 52.76 103.63H24.81C23.7682 103.631 22.7365 103.427 21.7738 103.029C20.8111 102.631 19.9363 102.047 19.1997 101.31C18.4631 100.574 17.879 99.6989 17.481 98.7362C17.0829 97.7735 16.8787 96.7417 16.88 95.7V51L17 50.79L19.27 46.79V92.63H56.27H56.31Z" fill="#263036"/>
</g>
<defs>
<clipPath id="clip0_1_405">
<rect width="81.56" height="122.88" fill="white"/>
</clipPath>
</defs>
</svg>
