<svg width="123" height="117" viewBox="0 0 123 117" fill="none" xmlns="http://www.w3.org/2000/svg">
<g clip-path="url(#clip0_1_397)">
<path fill-rule="evenodd" clip-rule="evenodd" d="M94.5002 20.23L83.3902 17.3L96.2002 0L108.13 2L99.7502 11L112.55 14.6L85.1502 37.71L94.5002 20.23ZM33.5002 48.09C33.4316 46.4128 33.5693 44.7336 33.9102 43.09C34.1378 42.1926 34.5449 41.3507 35.1069 40.6151C35.6689 39.8795 36.3742 39.2654 37.1802 38.81C37.8702 38.36 38.4802 37.92 39.0202 37.5C39.5193 37.1293 39.955 36.6802 40.3102 36.17C40.5996 35.7265 40.761 35.2119 40.7769 34.6827C40.7928 34.1534 40.6625 33.63 40.4002 33.17C38.9102 30.68 34.7002 31.87 34.7002 35H26.4402C26.3629 32.9591 26.9259 30.9451 28.0502 29.24C29.1048 27.7739 30.5645 26.6478 32.2502 26C34.0829 25.3059 36.0308 24.9665 37.9902 25C40.0867 24.9648 42.1726 25.3034 44.1502 26C45.8313 26.5763 47.3151 27.6163 48.4302 29C49.4952 30.4456 50.0477 32.2051 50.0002 34C50.0356 35.1224 49.8289 36.2392 49.394 37.2746C48.9592 38.3099 48.3064 39.2395 47.4802 40C46.6407 40.7712 45.7145 41.4423 44.7202 42C43.3814 42.6447 42.2794 43.6942 41.5702 45C41.2179 45.9585 41.078 46.9821 41.1602 48L33.5002 48.09ZM66.8302 43.09H71.2502V22.84C71.2476 20.8252 70.446 18.8936 69.0213 17.4689C67.5966 16.0442 65.6651 15.2426 63.6502 15.24H12.7402C10.7254 15.2426 8.79385 16.0442 7.36915 17.4689C5.94444 18.8936 5.14288 20.8252 5.14023 22.84V59.75C5.14288 61.7648 5.94444 63.6964 7.36915 65.1211C8.79385 66.5458 10.7254 67.3474 12.7402 67.35H26.2402C26.7462 67.3959 27.214 67.6384 27.5431 68.0254C27.8722 68.4125 28.0364 68.9132 28.0002 69.42L29.0002 78L44.2102 67.91C44.576 67.5574 45.0622 67.3572 45.5702 67.35H52.4502V55.84C52.4522 54.1669 52.7844 52.5106 53.4279 50.9661C54.0714 49.4217 55.0136 48.0195 56.2002 46.84C58.5897 44.4553 61.8244 43.1111 65.2002 43.1L66.8302 43.09ZM76.3902 43.09H110.1C113.476 43.1005 116.71 44.4462 119.097 46.8331C121.484 49.22 122.83 52.4544 122.84 55.83V92.75C122.838 94.4231 122.506 96.0794 121.863 97.6239C121.219 99.1683 120.277 100.571 119.09 101.75C116.859 103.964 113.898 105.29 110.76 105.48L110.08 111.6C109.983 112.487 109.656 113.334 109.131 114.056C108.606 114.779 107.902 115.351 107.087 115.718C106.273 116.085 105.378 116.232 104.489 116.147C103.6 116.061 102.749 115.745 102.02 115.23L87.3902 105.49H65.1902C61.8144 105.479 58.5797 104.135 56.1902 101.75L55.8502 101.39C54.8302 100.284 54.0112 99.008 53.4302 97.62C52.7788 96.0786 52.4389 94.4234 52.4302 92.75V72.49H46.5902L32.0002 82.23C31.2913 82.7338 30.4649 83.0471 29.6002 83.14C28.2481 83.286 26.8932 82.8902 25.8324 82.0392C24.7715 81.1883 24.0911 79.9516 23.9402 78.6L23.2602 72.48H12.7402C9.36551 72.4635 6.13273 71.1201 3.74023 68.74C2.55356 67.5605 1.61143 66.1583 0.967918 64.6139C0.324402 63.0694 -0.00784634 61.4131 -0.00976562 59.74V22.84C0.00341793 19.4635 1.35127 16.2291 3.73979 13.8425C6.12831 11.4558 9.3637 10.1105 12.7402 10.1H63.6902C67.066 10.1111 70.3008 11.4553 72.6902 13.84C73.8769 15.0195 74.819 16.4217 75.4626 17.9661C76.1061 19.5106 76.4383 21.1669 76.4402 22.84V43.1L76.3902 43.09ZM92.3902 56.09H82.8702V68L84.7302 82H90.6602L92.4502 68V56.1L92.3902 56.09ZM90.5802 86.29H84.7502V91.67H90.5802V86.29ZM37.4702 58.93C36.8763 58.9373 36.2869 58.8251 35.7371 58.6001C35.1874 58.3751 34.6885 58.0417 34.2702 57.62C33.851 57.2018 33.522 56.7021 33.3035 56.1516C33.0851 55.6012 32.9819 55.0119 33.0002 54.42C32.9916 53.8324 33.1044 53.2493 33.3316 52.7073C33.5587 52.1653 33.8953 51.676 34.3202 51.27C35.1644 50.4358 36.3034 49.968 37.4902 49.968C38.6771 49.968 39.816 50.4358 40.6602 51.27C41.0874 51.6753 41.4267 52.1641 41.6572 52.7059C41.8877 53.2478 42.0045 53.8312 42.0002 54.42C41.9887 55.2254 41.7608 56.013 41.3402 56.7C40.9274 57.3666 40.3618 57.9253 39.6902 58.33C39.0198 58.7312 38.2514 58.9388 37.4702 58.93Z" fill="#90CAF8"/>
</g>
<defs>
<clipPath id="clip0_1_397">
<rect width="122.88" height="116.17" fill="white"/>
</clipPath>
</defs>
</svg>
