<svg width="109" height="123" viewBox="0 0 109 123" fill="none" xmlns="http://www.w3.org/2000/svg">
<g clip-path="url(#clip0_1_399)">
<path fill-rule="evenodd" clip-rule="evenodd" d="M17.61 47.71H70.18C75.06 47.71 79.04 51.7 79.04 56.57V95.09C79.04 99.96 75.05 103.95 70.18 103.95H53.94L65.73 122.87H54.75L41.89 105.58L28.9 122.87H17.76L29.48 103.95H17.61C12.74 103.95 8.75 99.96 8.75 95.09V56.57C8.75 51.7 12.73 47.71 17.61 47.71ZM17.83 9.22C22.75 9.22 27.21 11.22 30.44 14.44C33.67 17.67 35.66 22.13 35.66 27.05C35.66 31.97 33.66 36.43 30.44 39.66C27.21 42.89 22.75 44.88 17.83 44.88C12.91 44.88 8.45 42.88 5.22 39.66C2 36.44 0 31.98 0 27.06C0 22.14 2 17.68 5.22 14.45C8.44 11.22 12.91 9.22 17.83 9.22ZM24.93 19.96C23.11 18.14 20.6 17.02 17.83 17.02C15.06 17.02 12.55 18.14 10.73 19.96C8.91 21.78 7.79 24.29 7.79 27.06C7.79 29.83 8.91 32.34 10.73 34.16C12.55 35.98 15.06 37.1 17.83 37.1C20.6 37.1 23.11 35.98 24.93 34.16C26.75 32.34 27.87 29.83 27.87 27.06C27.88 24.29 26.75 21.77 24.93 19.96ZM60.62 0C66.82 0 72.43 2.51 76.49 6.57C80.55 10.63 83.06 16.24 83.06 22.44C83.06 28.64 80.55 34.25 76.49 38.31C72.43 42.37 66.82 44.88 60.62 44.88C54.42 44.88 48.81 42.37 44.75 38.31C40.69 34.25 38.18 28.64 38.18 22.44C38.18 16.24 40.69 10.63 44.75 6.57C48.81 2.51 54.42 0 60.62 0ZM70.88 12.19C68.26 9.57 64.63 7.94 60.62 7.94C56.61 7.94 52.99 9.56 50.36 12.19C47.74 14.81 46.11 18.44 46.11 22.45C46.11 26.46 47.73 30.08 50.36 32.71C52.98 35.33 56.61 36.96 60.62 36.96C64.63 36.96 68.25 35.34 70.88 32.71C73.51 30.08 75.13 26.46 75.13 22.45C75.13 18.44 73.5 14.81 70.88 12.19ZM84.07 89.97V61.52L108.09 47.36V104.51L84.07 89.97Z" fill="#90CAF8"/>
</g>
<defs>
<clipPath id="clip0_1_399">
<rect width="108.1" height="122.88" fill="white"/>
</clipPath>
</defs>
</svg>
